<mxfile host="Electron" agent="Mozilla/5.0 (Windows NT 10.0; Win64; x64) AppleWebKit/537.36 (KHTML, like Gecko) draw.io/26.0.3 Chrome/130.0.6723.137 Electron/33.2.1 Safari/537.36" version="26.0.3">
  <diagram name="Page-1" id="bTeAZCcsIIA-rcSndxbb">
    <mxGraphModel dx="1420" dy="830" grid="1" gridSize="10" guides="1" tooltips="1" connect="1" arrows="1" fold="1" page="1" pageScale="1" pageWidth="1169" pageHeight="827" math="0" shadow="0">
      <root>
        <mxCell id="0" />
        <mxCell id="1" parent="0" />
        <mxCell id="koEGJMNdDWVCIMMdpYI--1" value="Jpa&lt;br&gt;Event&lt;br&gt;Forwarder" style="whiteSpace=wrap;html=1;aspect=fixed;sketch=1;hachureGap=4;jiggle=2;curveFitting=1;fontFamily=Architects Daughter;fontSource=https%3A%2F%2Ffonts.googleapis.com%2Fcss%3Ffamily%3DArchitects%2BDaughter;" parent="1" vertex="1">
          <mxGeometry x="270" y="260" width="80" height="80" as="geometry" />
        </mxCell>
        <mxCell id="koEGJMNdDWVCIMMdpYI--17" style="edgeStyle=orthogonalEdgeStyle;rounded=0;sketch=1;hachureGap=4;jiggle=2;curveFitting=1;orthogonalLoop=1;jettySize=auto;html=1;entryX=0;entryY=0.5;entryDx=0;entryDy=0;fontFamily=Architects Daughter;fontSource=https%3A%2F%2Ffonts.googleapis.com%2Fcss%3Ffamily%3DArchitects%2BDaughter;" parent="1" source="koEGJMNdDWVCIMMdpYI--5" target="koEGJMNdDWVCIMMdpYI--11" edge="1">
          <mxGeometry relative="1" as="geometry" />
        </mxCell>
        <mxCell id="koEGJMNdDWVCIMMdpYI--18" value="Includes" style="edgeLabel;html=1;align=center;verticalAlign=middle;resizable=0;points=[];sketch=1;hachureGap=4;jiggle=2;curveFitting=1;fontFamily=Architects Daughter;fontSource=https%3A%2F%2Ffonts.googleapis.com%2Fcss%3Ffamily%3DArchitects%2BDaughter;" parent="koEGJMNdDWVCIMMdpYI--17" vertex="1" connectable="0">
          <mxGeometry x="-0.5282" y="3" relative="1" as="geometry">
            <mxPoint x="10" y="-7" as="offset" />
          </mxGeometry>
        </mxCell>
        <mxCell id="koEGJMNdDWVCIMMdpYI--19" style="edgeStyle=orthogonalEdgeStyle;rounded=0;sketch=1;hachureGap=4;jiggle=2;curveFitting=1;orthogonalLoop=1;jettySize=auto;html=1;entryX=0;entryY=0.5;entryDx=0;entryDy=0;fontFamily=Architects Daughter;fontSource=https%3A%2F%2Ffonts.googleapis.com%2Fcss%3Ffamily%3DArchitects%2BDaughter;" parent="1" source="koEGJMNdDWVCIMMdpYI--5" target="koEGJMNdDWVCIMMdpYI--12" edge="1">
          <mxGeometry relative="1" as="geometry" />
        </mxCell>
        <mxCell id="koEGJMNdDWVCIMMdpYI--5" value="&lt;span style=&quot;text-align: left;&quot;&gt;Persistence&lt;br&gt;Event&lt;/span&gt;" style="whiteSpace=wrap;html=1;aspect=fixed;sketch=1;hachureGap=4;jiggle=2;curveFitting=1;fontFamily=Architects Daughter;fontSource=https%3A%2F%2Ffonts.googleapis.com%2Fcss%3Ffamily%3DArchitects%2BDaughter;" parent="1" vertex="1">
          <mxGeometry x="420" y="260" width="80" height="80" as="geometry" />
        </mxCell>
        <mxCell id="koEGJMNdDWVCIMMdpYI--6" value="uses" style="endArrow=open;html=1;rounded=0;align=center;verticalAlign=bottom;dashed=1;endFill=0;labelBackgroundColor=none;sketch=1;hachureGap=4;jiggle=2;curveFitting=1;fontFamily=Architects Daughter;fontSource=https%3A%2F%2Ffonts.googleapis.com%2Fcss%3Ffamily%3DArchitects%2BDaughter;exitX=0.467;exitY=1.001;exitDx=0;exitDy=0;exitPerimeter=0;entryX=0.5;entryY=0;entryDx=0;entryDy=0;" parent="1" source="koEGJMNdDWVCIMMdpYI--1" target="koEGJMNdDWVCIMMdpYI--3" edge="1">
          <mxGeometry relative="1" as="geometry">
            <mxPoint x="400" y="270" as="sourcePoint" />
            <mxPoint x="560" y="270" as="targetPoint" />
          </mxGeometry>
        </mxCell>
        <mxCell id="koEGJMNdDWVCIMMdpYI--8" value="" style="group" parent="1" vertex="1" connectable="0">
          <mxGeometry x="270" y="390" width="80" height="80" as="geometry" />
        </mxCell>
        <mxCell id="koEGJMNdDWVCIMMdpYI--2" value="Application&lt;br&gt;Event&lt;br&gt;Publisher" style="whiteSpace=wrap;html=1;aspect=fixed;sketch=1;hachureGap=4;jiggle=2;curveFitting=1;fontFamily=Architects Daughter;fontSource=https%3A%2F%2Ffonts.googleapis.com%2Fcss%3Ffamily%3DArchitects%2BDaughter;" parent="koEGJMNdDWVCIMMdpYI--8" vertex="1">
          <mxGeometry width="80" height="80" as="geometry" />
        </mxCell>
        <mxCell id="koEGJMNdDWVCIMMdpYI--3" value="&lt;&lt;spring&gt;&gt;" style="text;whiteSpace=wrap;fontFamily=Architects Daughter;fontSource=https%3A%2F%2Ffonts.googleapis.com%2Fcss%3Ffamily%3DArchitects%2BDaughter;verticalAlign=middle;align=center;" parent="koEGJMNdDWVCIMMdpYI--8" vertex="1">
          <mxGeometry x="10" width="60" height="20" as="geometry" />
        </mxCell>
        <mxCell id="koEGJMNdDWVCIMMdpYI--11" value="&lt;span style=&quot;text-align: left;&quot;&gt;Persistence&lt;br&gt;Event&lt;br&gt;Type&lt;/span&gt;" style="whiteSpace=wrap;html=1;aspect=fixed;sketch=1;hachureGap=4;jiggle=2;curveFitting=1;fontFamily=Architects Daughter;fontSource=https%3A%2F%2Ffonts.googleapis.com%2Fcss%3Ffamily%3DArchitects%2BDaughter;" parent="1" vertex="1">
          <mxGeometry x="590" y="220" width="80" height="80" as="geometry" />
        </mxCell>
        <mxCell id="koEGJMNdDWVCIMMdpYI--12" value="&lt;span style=&quot;text-align: left;&quot;&gt;Persistence&lt;br&gt;Event&lt;br&gt;Data&lt;/span&gt;" style="whiteSpace=wrap;html=1;aspect=fixed;sketch=1;hachureGap=4;jiggle=2;curveFitting=1;fontFamily=Architects Daughter;fontSource=https%3A%2F%2Ffonts.googleapis.com%2Fcss%3Ffamily%3DArchitects%2BDaughter;" parent="1" vertex="1">
          <mxGeometry x="585" y="330" width="80" height="80" as="geometry" />
        </mxCell>
        <mxCell id="koEGJMNdDWVCIMMdpYI--13" value="" style="html=1;verticalAlign=bottom;labelBackgroundColor=none;endArrow=open;endFill=0;dashed=1;rounded=0;sketch=1;hachureGap=4;jiggle=2;curveFitting=1;fontFamily=Architects Daughter;fontSource=https%3A%2F%2Ffonts.googleapis.com%2Fcss%3Ffamily%3DArchitects%2BDaughter;exitX=1;exitY=0.5;exitDx=0;exitDy=0;entryX=0;entryY=0.5;entryDx=0;entryDy=0;" parent="1" source="koEGJMNdDWVCIMMdpYI--1" target="koEGJMNdDWVCIMMdpYI--5" edge="1">
          <mxGeometry width="160" relative="1" as="geometry">
            <mxPoint x="410" y="400" as="sourcePoint" />
            <mxPoint x="570" y="400" as="targetPoint" />
          </mxGeometry>
        </mxCell>
        <mxCell id="koEGJMNdDWVCIMMdpYI--14" value="Create" style="edgeLabel;html=1;align=center;verticalAlign=middle;resizable=0;points=[];sketch=1;hachureGap=4;jiggle=2;curveFitting=1;fontFamily=Architects Daughter;fontSource=https%3A%2F%2Ffonts.googleapis.com%2Fcss%3Ffamily%3DArchitects%2BDaughter;" parent="koEGJMNdDWVCIMMdpYI--13" vertex="1" connectable="0">
          <mxGeometry x="-0.2327" y="-1" relative="1" as="geometry">
            <mxPoint as="offset" />
          </mxGeometry>
        </mxCell>
        <mxCell id="koEGJMNdDWVCIMMdpYI--15" style="edgeStyle=orthogonalEdgeStyle;rounded=0;sketch=1;hachureGap=4;jiggle=2;curveFitting=1;orthogonalLoop=1;jettySize=auto;html=1;entryX=0.5;entryY=1;entryDx=0;entryDy=0;fontFamily=Architects Daughter;fontSource=https%3A%2F%2Ffonts.googleapis.com%2Fcss%3Ffamily%3DArchitects%2BDaughter;exitX=1.002;exitY=0.549;exitDx=0;exitDy=0;exitPerimeter=0;" parent="1" source="koEGJMNdDWVCIMMdpYI--2" target="koEGJMNdDWVCIMMdpYI--5" edge="1">
          <mxGeometry relative="1" as="geometry" />
        </mxCell>
        <mxCell id="koEGJMNdDWVCIMMdpYI--16" value="Sends" style="edgeLabel;html=1;align=center;verticalAlign=middle;resizable=0;points=[];sketch=1;hachureGap=4;jiggle=2;curveFitting=1;fontFamily=Architects Daughter;fontSource=https%3A%2F%2Ffonts.googleapis.com%2Fcss%3Ffamily%3DArchitects%2BDaughter;" parent="koEGJMNdDWVCIMMdpYI--15" vertex="1" connectable="0">
          <mxGeometry x="-0.3219" y="-1" relative="1" as="geometry">
            <mxPoint as="offset" />
          </mxGeometry>
        </mxCell>
        <mxCell id="koEGJMNdDWVCIMMdpYI--22" value="" style="group" parent="1" vertex="1" connectable="0">
          <mxGeometry x="20" y="261" width="80" height="80" as="geometry" />
        </mxCell>
        <mxCell id="koEGJMNdDWVCIMMdpYI--20" value="Person" style="whiteSpace=wrap;html=1;aspect=fixed;sketch=1;hachureGap=4;jiggle=2;curveFitting=1;fontFamily=Architects Daughter;fontSource=https%3A%2F%2Ffonts.googleapis.com%2Fcss%3Ffamily%3DArchitects%2BDaughter;" parent="koEGJMNdDWVCIMMdpYI--22" vertex="1">
          <mxGeometry width="80" height="80" as="geometry" />
        </mxCell>
        <mxCell id="koEGJMNdDWVCIMMdpYI--21" value="&lt;&lt;entity&gt;&gt;" style="text;whiteSpace=wrap;fontFamily=Architects Daughter;fontSource=https%3A%2F%2Ffonts.googleapis.com%2Fcss%3Ffamily%3DArchitects%2BDaughter;verticalAlign=middle;align=center;" parent="koEGJMNdDWVCIMMdpYI--22" vertex="1">
          <mxGeometry x="10" width="60" height="20" as="geometry" />
        </mxCell>
        <mxCell id="koEGJMNdDWVCIMMdpYI--25" style="edgeStyle=orthogonalEdgeStyle;rounded=0;sketch=1;hachureGap=4;jiggle=2;curveFitting=1;orthogonalLoop=1;jettySize=auto;html=1;entryX=0;entryY=0.5;entryDx=0;entryDy=0;fontFamily=Architects Daughter;fontSource=https%3A%2F%2Ffonts.googleapis.com%2Fcss%3Ffamily%3DArchitects%2BDaughter;" parent="1" source="koEGJMNdDWVCIMMdpYI--23" target="koEGJMNdDWVCIMMdpYI--1" edge="1">
          <mxGeometry relative="1" as="geometry" />
        </mxCell>
        <mxCell id="koEGJMNdDWVCIMMdpYI--23" value="@Entity&lt;br&gt;Listeners" style="html=1;align=center;verticalAlign=middle;dashed=0;whiteSpace=wrap;sketch=1;hachureGap=4;jiggle=2;curveFitting=1;fontFamily=Architects Daughter;fontSource=https%3A%2F%2Ffonts.googleapis.com%2Fcss%3Ffamily%3DArchitects%2BDaughter;" parent="1" vertex="1">
          <mxGeometry x="167" y="283" width="60" height="35" as="geometry" />
        </mxCell>
        <mxCell id="koEGJMNdDWVCIMMdpYI--24" style="edgeStyle=orthogonalEdgeStyle;rounded=0;sketch=1;hachureGap=4;jiggle=2;curveFitting=1;orthogonalLoop=1;jettySize=auto;html=1;entryX=0;entryY=0.5;entryDx=0;entryDy=0;fontFamily=Architects Daughter;fontSource=https%3A%2F%2Ffonts.googleapis.com%2Fcss%3Ffamily%3DArchitects%2BDaughter;" parent="1" source="koEGJMNdDWVCIMMdpYI--20" target="koEGJMNdDWVCIMMdpYI--23" edge="1">
          <mxGeometry relative="1" as="geometry" />
        </mxCell>
        <mxCell id="koEGJMNdDWVCIMMdpYI--30" style="edgeStyle=orthogonalEdgeStyle;rounded=0;sketch=1;hachureGap=4;jiggle=2;curveFitting=1;orthogonalLoop=1;jettySize=auto;html=1;entryX=0.5;entryY=0;entryDx=0;entryDy=0;fontFamily=Architects Daughter;fontSource=https%3A%2F%2Ffonts.googleapis.com%2Fcss%3Ffamily%3DArchitects%2BDaughter;" parent="1" source="koEGJMNdDWVCIMMdpYI--26" target="koEGJMNdDWVCIMMdpYI--28" edge="1">
          <mxGeometry relative="1" as="geometry" />
        </mxCell>
        <mxCell id="koEGJMNdDWVCIMMdpYI--32" value="implements" style="edgeLabel;html=1;align=center;verticalAlign=middle;resizable=0;points=[];sketch=1;hachureGap=4;jiggle=2;curveFitting=1;fontFamily=Architects Daughter;fontSource=https%3A%2F%2Ffonts.googleapis.com%2Fcss%3Ffamily%3DArchitects%2BDaughter;" parent="koEGJMNdDWVCIMMdpYI--30" vertex="1" connectable="0">
          <mxGeometry x="0.1758" y="2" relative="1" as="geometry">
            <mxPoint x="60" y="-17" as="offset" />
          </mxGeometry>
        </mxCell>
        <mxCell id="koEGJMNdDWVCIMMdpYI--33" style="edgeStyle=orthogonalEdgeStyle;rounded=0;sketch=1;hachureGap=4;jiggle=2;curveFitting=1;orthogonalLoop=1;jettySize=auto;html=1;entryX=0.5;entryY=0;entryDx=0;entryDy=0;fontFamily=Architects Daughter;fontSource=https%3A%2F%2Ffonts.googleapis.com%2Fcss%3Ffamily%3DArchitects%2BDaughter;" parent="1" source="koEGJMNdDWVCIMMdpYI--26" target="koEGJMNdDWVCIMMdpYI--29" edge="1">
          <mxGeometry relative="1" as="geometry" />
        </mxCell>
        <mxCell id="koEGJMNdDWVCIMMdpYI--26" value="&lt;div style=&quot;&quot;&gt;&lt;span style=&quot;background-color: initial;&quot;&gt;Persistence&lt;br&gt;Event&lt;br&gt;Forwarder&lt;/span&gt;&lt;/div&gt;" style="whiteSpace=wrap;html=1;aspect=fixed;sketch=1;hachureGap=4;jiggle=2;curveFitting=1;fontFamily=Architects Daughter;fontSource=https%3A%2F%2Ffonts.googleapis.com%2Fcss%3Ffamily%3DArchitects%2BDaughter;verticalAlign=middle;align=center;" parent="1" vertex="1">
          <mxGeometry x="800" y="300" width="80" height="80" as="geometry" />
        </mxCell>
        <mxCell id="koEGJMNdDWVCIMMdpYI--28" value="&lt;div style=&quot;&quot;&gt;&lt;div&gt;Application&lt;/div&gt;&lt;div&gt;Listener&lt;/div&gt;&lt;/div&gt;" style="whiteSpace=wrap;html=1;aspect=fixed;sketch=1;hachureGap=4;jiggle=2;curveFitting=1;fontFamily=Architects Daughter;fontSource=https%3A%2F%2Ffonts.googleapis.com%2Fcss%3Ffamily%3DArchitects%2BDaughter;verticalAlign=middle;align=center;" parent="1" vertex="1">
          <mxGeometry x="760" y="450" width="80" height="80" as="geometry" />
        </mxCell>
        <mxCell id="koEGJMNdDWVCIMMdpYI--29" value="&lt;div style=&quot;&quot;&gt;&lt;div&gt;Consumer&lt;br&gt;&amp;lt;&lt;span style=&quot;background-color: initial;&quot;&gt;FluxSink&amp;lt;&amp;gt;&lt;/span&gt;&lt;span style=&quot;background-color: initial;&quot;&gt;&amp;gt;&lt;/span&gt;&lt;/div&gt;&lt;/div&gt;" style="whiteSpace=wrap;html=1;aspect=fixed;sketch=1;hachureGap=4;jiggle=2;curveFitting=1;fontFamily=Architects Daughter;fontSource=https%3A%2F%2Ffonts.googleapis.com%2Fcss%3Ffamily%3DArchitects%2BDaughter;verticalAlign=middle;align=center;" parent="1" vertex="1">
          <mxGeometry x="860" y="450" width="80" height="80" as="geometry" />
        </mxCell>
        <mxCell id="koEGJMNdDWVCIMMdpYI--35" style="edgeStyle=orthogonalEdgeStyle;rounded=0;sketch=1;hachureGap=4;jiggle=2;curveFitting=1;orthogonalLoop=1;jettySize=auto;html=1;fontFamily=Architects Daughter;fontSource=https%3A%2F%2Ffonts.googleapis.com%2Fcss%3Ffamily%3DArchitects%2BDaughter;" parent="1" source="koEGJMNdDWVCIMMdpYI--34" target="koEGJMNdDWVCIMMdpYI--26" edge="1">
          <mxGeometry relative="1" as="geometry" />
        </mxCell>
        <mxCell id="koEGJMNdDWVCIMMdpYI--36" value="Uses" style="edgeLabel;html=1;align=center;verticalAlign=middle;resizable=0;points=[];sketch=1;hachureGap=4;jiggle=2;curveFitting=1;fontFamily=Architects Daughter;fontSource=https%3A%2F%2Ffonts.googleapis.com%2Fcss%3Ffamily%3DArchitects%2BDaughter;" parent="koEGJMNdDWVCIMMdpYI--35" vertex="1" connectable="0">
          <mxGeometry x="0.11" relative="1" as="geometry">
            <mxPoint as="offset" />
          </mxGeometry>
        </mxCell>
        <mxCell id="koEGJMNdDWVCIMMdpYI--34" value="&lt;div style=&quot;&quot;&gt;&lt;span style=&quot;background-color: initial;&quot;&gt;WebSocket&lt;br&gt;Handler&lt;/span&gt;&lt;/div&gt;" style="whiteSpace=wrap;html=1;aspect=fixed;sketch=1;hachureGap=4;jiggle=2;curveFitting=1;fontFamily=Architects Daughter;fontSource=https%3A%2F%2Ffonts.googleapis.com%2Fcss%3Ffamily%3DArchitects%2BDaughter;verticalAlign=middle;align=center;" parent="1" vertex="1">
          <mxGeometry x="800" y="120" width="80" height="80" as="geometry" />
        </mxCell>
        <mxCell id="qvaol77_UjaoGRIFrJA_-12" style="edgeStyle=orthogonalEdgeStyle;rounded=0;sketch=1;hachureGap=4;jiggle=2;curveFitting=1;orthogonalLoop=1;jettySize=auto;html=1;fontFamily=Architects Daughter;fontSource=https%3A%2F%2Ffonts.googleapis.com%2Fcss%3Ffamily%3DArchitects%2BDaughter;" edge="1" parent="1" source="qvaol77_UjaoGRIFrJA_-1" target="qvaol77_UjaoGRIFrJA_-10">
          <mxGeometry relative="1" as="geometry" />
        </mxCell>
        <mxCell id="qvaol77_UjaoGRIFrJA_-1" value="Jpa&lt;br&gt;Event&lt;br&gt;Forwarder" style="whiteSpace=wrap;html=1;aspect=fixed;sketch=1;hachureGap=4;jiggle=2;curveFitting=1;fontFamily=Architects Daughter;fontSource=https://fonts.googleapis.com/css?family=Architects+Daughter;" vertex="1" parent="1">
          <mxGeometry x="310" y="700" width="80" height="80" as="geometry" />
        </mxCell>
        <mxCell id="qvaol77_UjaoGRIFrJA_-3" value="" style="group" vertex="1" connectable="0" parent="1">
          <mxGeometry x="60" y="701" width="80" height="80" as="geometry" />
        </mxCell>
        <mxCell id="qvaol77_UjaoGRIFrJA_-4" value="Person" style="whiteSpace=wrap;html=1;aspect=fixed;sketch=1;hachureGap=4;jiggle=2;curveFitting=1;fontFamily=Architects Daughter;fontSource=https://fonts.googleapis.com/css?family=Architects+Daughter;" vertex="1" parent="qvaol77_UjaoGRIFrJA_-3">
          <mxGeometry width="80" height="80" as="geometry" />
        </mxCell>
        <mxCell id="qvaol77_UjaoGRIFrJA_-5" value="&lt;&lt;entity&gt;&gt;" style="text;whiteSpace=wrap;fontFamily=Architects Daughter;fontSource=https://fonts.googleapis.com/css?family=Architects+Daughter;verticalAlign=middle;align=center;" vertex="1" parent="qvaol77_UjaoGRIFrJA_-3">
          <mxGeometry x="10" width="60" height="20" as="geometry" />
        </mxCell>
        <mxCell id="qvaol77_UjaoGRIFrJA_-6" style="edgeStyle=orthogonalEdgeStyle;rounded=0;sketch=1;hachureGap=4;jiggle=2;curveFitting=1;orthogonalLoop=1;jettySize=auto;html=1;entryX=0;entryY=0.5;entryDx=0;entryDy=0;fontFamily=Architects Daughter;fontSource=https://fonts.googleapis.com/css?family=Architects+Daughter;" edge="1" parent="1" source="qvaol77_UjaoGRIFrJA_-7" target="qvaol77_UjaoGRIFrJA_-1">
          <mxGeometry relative="1" as="geometry" />
        </mxCell>
        <mxCell id="qvaol77_UjaoGRIFrJA_-7" value="@Entity&lt;br&gt;Listeners" style="html=1;align=center;verticalAlign=middle;dashed=0;whiteSpace=wrap;sketch=1;hachureGap=4;jiggle=2;curveFitting=1;fontFamily=Architects Daughter;fontSource=https://fonts.googleapis.com/css?family=Architects+Daughter;" vertex="1" parent="1">
          <mxGeometry x="207" y="723" width="60" height="35" as="geometry" />
        </mxCell>
        <mxCell id="qvaol77_UjaoGRIFrJA_-8" style="edgeStyle=orthogonalEdgeStyle;rounded=0;sketch=1;hachureGap=4;jiggle=2;curveFitting=1;orthogonalLoop=1;jettySize=auto;html=1;entryX=0;entryY=0.5;entryDx=0;entryDy=0;fontFamily=Architects Daughter;fontSource=https://fonts.googleapis.com/css?family=Architects+Daughter;" edge="1" parent="1" source="qvaol77_UjaoGRIFrJA_-4" target="qvaol77_UjaoGRIFrJA_-7">
          <mxGeometry relative="1" as="geometry" />
        </mxCell>
        <mxCell id="qvaol77_UjaoGRIFrJA_-9" value="" style="group" vertex="1" connectable="0" parent="1">
          <mxGeometry x="530" y="700" width="80" height="80" as="geometry" />
        </mxCell>
        <mxCell id="qvaol77_UjaoGRIFrJA_-10" value="Application&lt;br&gt;Event&lt;br&gt;Publisher" style="whiteSpace=wrap;html=1;aspect=fixed;sketch=1;hachureGap=4;jiggle=2;curveFitting=1;fontFamily=Architects Daughter;fontSource=https://fonts.googleapis.com/css?family=Architects+Daughter;" vertex="1" parent="qvaol77_UjaoGRIFrJA_-9">
          <mxGeometry width="80" height="80" as="geometry" />
        </mxCell>
        <mxCell id="qvaol77_UjaoGRIFrJA_-11" value="&lt;&lt;spring&gt;&gt;" style="text;whiteSpace=wrap;fontFamily=Architects Daughter;fontSource=https://fonts.googleapis.com/css?family=Architects+Daughter;verticalAlign=middle;align=center;" vertex="1" parent="qvaol77_UjaoGRIFrJA_-9">
          <mxGeometry x="10" width="60" height="20" as="geometry" />
        </mxCell>
        <mxCell id="qvaol77_UjaoGRIFrJA_-13" value="&lt;span style=&quot;text-align: left;&quot;&gt;Persistence&lt;br&gt;Event&lt;/span&gt;" style="whiteSpace=wrap;html=1;aspect=fixed;sketch=1;hachureGap=4;jiggle=2;curveFitting=1;fontFamily=Architects Daughter;fontSource=https://fonts.googleapis.com/css?family=Architects+Daughter;" vertex="1" parent="1">
          <mxGeometry x="730" y="700" width="80" height="80" as="geometry" />
        </mxCell>
        <mxCell id="qvaol77_UjaoGRIFrJA_-14" style="edgeStyle=orthogonalEdgeStyle;rounded=0;sketch=1;hachureGap=4;jiggle=2;curveFitting=1;orthogonalLoop=1;jettySize=auto;html=1;fontFamily=Architects Daughter;fontSource=https%3A%2F%2Ffonts.googleapis.com%2Fcss%3Ffamily%3DArchitects%2BDaughter;" edge="1" parent="1" source="qvaol77_UjaoGRIFrJA_-10" target="qvaol77_UjaoGRIFrJA_-13">
          <mxGeometry relative="1" as="geometry" />
        </mxCell>
        <mxCell id="qvaol77_UjaoGRIFrJA_-15" value="&lt;h1 style=&quot;text-align: center; margin-top: 0px;&quot;&gt;&lt;font color=&quot;#336600&quot;&gt;Flow&lt;/font&gt;&lt;/h1&gt;&lt;p&gt;Entity Listener captures interactions relating to Person and publishes these as PersistenceEvents via the ApplicationEventPublisher&lt;/p&gt;" style="text;html=1;whiteSpace=wrap;overflow=hidden;rounded=0;fontFamily=Architects Daughter;fontSource=https%3A%2F%2Ffonts.googleapis.com%2Fcss%3Ffamily%3DArchitects%2BDaughter;" vertex="1" parent="1">
          <mxGeometry x="167" y="781" width="470" height="90" as="geometry" />
        </mxCell>
        <mxCell id="qvaol77_UjaoGRIFrJA_-16" value="" style="shape=crossbar;whiteSpace=wrap;html=1;rounded=1;sketch=1;hachureGap=4;jiggle=2;curveFitting=1;fontFamily=Architects Daughter;fontSource=https%3A%2F%2Ffonts.googleapis.com%2Fcss%3Ffamily%3DArchitects%2BDaughter;" vertex="1" parent="1">
          <mxGeometry x="47" y="807" width="783" height="20" as="geometry" />
        </mxCell>
      </root>
    </mxGraphModel>
  </diagram>
</mxfile>
